<svg xmlns="http://www.w3.org/2000/svg" width="680" height="560" viewBox="0 0 680 560">
<rect width="100%" height="100%" fill="#ffffff"/>
<style>text{font-family:Arial,Helvetica,sans-serif;fill:#222}.title{font-size:22px;font-weight:700}.label{font-size:12px}.small{font-size:11px;fill:#555}</style>
<text x="40" y="42" class="title">Naive Bayes confusion matrix</text>
<text x="330" y="90" text-anchor="middle" class="label">Predicted label</text>
<text x="245.0" y="102" text-anchor="middle" class="label">High</text>
<text x="172" y="179.0" text-anchor="end" class="label">High</text>
<text x="355.0" y="102" text-anchor="middle" class="label">Low</text>
<text x="172" y="289.0" text-anchor="end" class="label">Low</text>
<text x="465.0" y="102" text-anchor="middle" class="label">Medium</text>
<text x="172" y="399.0" text-anchor="end" class="label">Medium</text>
<rect x="190" y="120" width="110" height="110" fill="#cad5f5" stroke="#ffffff" stroke-width="2"/>
<text x="245.0" y="180.0" text-anchor="middle" class="label">29,212</text>
<rect x="300" y="120" width="110" height="110" fill="#f5f8ff" stroke="#ffffff" stroke-width="2"/>
<text x="355.0" y="180.0" text-anchor="middle" class="label">0</text>
<rect x="410" y="120" width="110" height="110" fill="#f1f4fe" stroke="#ffffff" stroke-width="2"/>
<text x="465.0" y="180.0" text-anchor="middle" class="label">2,575</text>
<rect x="190" y="230" width="110" height="110" fill="#f5f8ff" stroke="#ffffff" stroke-width="2"/>
<text x="245.0" y="290.0" text-anchor="middle" class="label">0</text>
<rect x="300" y="230" width="110" height="110" fill="#b0c0f0" stroke="#ffffff" stroke-width="2"/>
<text x="355.0" y="290.0" text-anchor="middle" class="label">46,808</text>
<rect x="410" y="230" width="110" height="110" fill="#f0f3fd" stroke="#ffffff" stroke-width="2"/>
<text x="465.0" y="290.0" text-anchor="middle" class="label">3,436</text>
<rect x="190" y="340" width="110" height="110" fill="#eff3fd" stroke="#ffffff" stroke-width="2"/>
<text x="245.0" y="400.0" text-anchor="middle" class="label">3,613</text>
<rect x="300" y="340" width="110" height="110" fill="#eef2fd" stroke="#ffffff" stroke-width="2"/>
<text x="355.0" y="400.0" text-anchor="middle" class="label">4,277</text>
<rect x="410" y="340" width="110" height="110" fill="#5576dc" stroke="#ffffff" stroke-width="2"/>
<text x="465.0" y="400.0" text-anchor="middle" class="label">110,079</text>
</svg>
